HIERARCHY
ROOT Hips
{
    OFFSET 0.000000 0.000000 0.000000
    CHANNELS 6 Xposition Yposition Zposition Zrotation Xrotation Yrotation
    JOINT Ab
    {
        OFFSET -0.000000 8.084561 -0.000000
        CHANNELS 3 Zrotation Xrotation Yrotation
        JOINT Chest
        {
            OFFSET -0.000000 25.006802 -0.000000
            CHANNELS 3 Zrotation Xrotation Yrotation
            JOINT Neck
            {
                OFFSET -0.000000 25.006802 0.000000
                CHANNELS 3 Zrotation Xrotation Yrotation
                JOINT Head
                {
                    OFFSET -0.000000 10.755555 0.000000
                    CHANNELS 3 Zrotation Xrotation Yrotation
                    End Site
                    {
                        OFFSET -0.000000 16.622223 0.000000
                    }
                }
            }
            JOINT LeftCollar
            {
                OFFSET -0.000000 25.006802 0.000000
                CHANNELS 3 Zrotation Xrotation Yrotation
                JOINT LeftShoulder
                {
                    OFFSET 19.555553 -0.000000 0.000000
                    CHANNELS 3 Zrotation Xrotation Yrotation
                    JOINT LeftElbow
                    {
                        OFFSET 27.182800 0.000000 0.000000
                        CHANNELS 3 Zrotation Xrotation Yrotation
                        JOINT LeftWrist
                        {
                            OFFSET 23.315706 0.000000 0.000000
                            CHANNELS 3 Zrotation Xrotation Yrotation
                            End Site
                            {
                                OFFSET 0.000000 -14.666668 0.000000
                            }
                        }
                    }
                }
            }
            JOINT RightCollar
            {
                OFFSET -0.000000 25.006802 0.000000
                CHANNELS 3 Zrotation Xrotation Yrotation
                JOINT RightShoulder
                {
                    OFFSET -19.555553 0.000000 0.000000
                    CHANNELS 3 Zrotation Xrotation Yrotation
                    JOINT RightElbow
                    {
                        OFFSET -27.182800 0.000000 0.000000
                        CHANNELS 3 Zrotation Xrotation Yrotation
                        JOINT RightWrist
                        {
                            OFFSET -23.315706 0.000000 0.000000
                            CHANNELS 3 Zrotation Xrotation Yrotation
                            End Site
                            {
                                OFFSET -0.000000 -14.666668 0.000000
                            }
                        }
                    }
                }
            }
        }
    }
    JOINT LeftHip
    {
        OFFSET 11.733333 0.000000 0.000000
        CHANNELS 3 Zrotation Xrotation Yrotation
        JOINT LeftKnee
        {
            OFFSET -0.000000 -40.868771 0.000000
            CHANNELS 3 Zrotation Xrotation Yrotation
            JOINT LeftAnkle
            {
                OFFSET -0.000000 -44.433651 0.000000
                CHANNELS 3 Zrotation Xrotation Yrotation
                End Site
                {
                    OFFSET -0.000000 -4.888888 16.622223
                }
            }
        }
    }
    JOINT RightHip
    {
        OFFSET -11.733333 0.000000 0.000000
        CHANNELS 3 Zrotation Xrotation Yrotation
        JOINT RightKnee
        {
            OFFSET -0.000000 -40.868771 0.000000
            CHANNELS 3 Zrotation Xrotation Yrotation
            JOINT RightAnkle
            {
                OFFSET -0.000000 -44.433651 0.000000
                CHANNELS 3 Zrotation Xrotation Yrotation
                End Site
                {
                    OFFSET -0.000000 -4.888888 16.622223
                }
            }
        }
    }
}
MOTION
Frames:    8
Frame Time:    0.010000
-1.54469600 88.63393400 185.91181900 2.22089400 1.00722900 175.53414900 0.66024900 -0.18441800 -1.11623300 0.15977900 11.26120000 -1.13263900 3.56700700 -17.96653000 2.58971500 0.24739400 1.16124500 2.02319800 -22.00131000 -1.49043600 7.58341100 -59.74684500 29.91822100 -3.56999300 16.30888900 -5.62656500 -37.80213900 83.20341500 0.77091900 -18.21270900 22.12575100 -0.90388100 -4.70946000 58.59095800 45.93458600 9.18437900 -22.66641000 -5.75733300 28.16720400 -84.37695300 -8.20370900 18.76357300 2.04935100 -0.80709000 -3.19946400 -1.02239700 10.74225400 -1.24280800 -2.18868500 -8.08079300 21.60293000 0.60169300 -7.68161700 -0.40062400 -1.70663700 20.75713900 8.62672000 -3.51008600 -15.24136600 -22.22692500 
-1.55286900 88.63378900 185.90264900 2.22123800 1.02019800 175.53248600 0.67879500 -0.16563500 -1.12209300 0.14948800 11.26240500 -1.13751800 3.57188400 -17.93961500 2.61600400 0.26244400 1.10289500 2.05061700 -21.99376900 -1.46121100 7.55867000 -59.77611900 29.73523300 -3.52637700 16.18083600 -5.58364600 -37.83183700 83.22970600 0.77044700 -18.36257700 22.13027800 -0.93863200 -4.68792200 58.60365700 45.98284100 9.15067100 -22.76224900 -5.77664000 28.14872200 -84.30561100 -8.26991900 18.68596600 2.04528800 -0.78067700 -3.21516500 -1.02523000 10.72806900 -1.25067700 -2.12059900 -8.06414000 21.63252100 0.59583700 -7.65239300 -0.40891700 -1.71130100 20.73465200 8.60701600 -3.45147000 -15.25544500 -22.18989400 
-1.55937300 88.63328600 185.89491300 2.21931100 1.01181700 175.53347800 0.70616900 -0.15476700 -1.13168300 0.12619700 11.23124100 -1.14385200 3.57802200 -17.94073700 2.63976500 0.25360800 1.12450100 2.07205700 -21.98896200 -1.49513800 7.61227200 -59.77943800 29.86298600 -3.54665800 16.31133100 -5.64911100 -37.85348500 83.17168400 0.83028400 -18.23189000 22.14899600 -0.92031500 -4.66400100 58.62171600 45.92363000 9.09941400 -22.65672300 -5.75220000 28.14234200 -84.35998500 -8.25203100 18.73607400 2.03377300 -0.79348300 -3.19545900 -1.01317000 10.74411600 -1.24807600 -2.16292700 -8.08502700 21.61118300 0.58892900 -7.66286900 -0.41887200 -1.71263300 20.74832700 8.64924200 -3.55022400 -15.22595200 -22.24182700 
-1.56326200 88.63273600 185.89126600 2.22445200 1.00458800 175.54148900 0.72444800 -0.13978000 -1.14595400 0.12479900 11.20577000 -1.15751600 3.53421700 -17.89028400 2.63625500 0.31610500 1.04964500 2.07799400 -21.97732400 -1.49358700 7.57601500 -59.81874500 29.64530000 -3.46654400 16.15925600 -5.57483500 -37.88067600 83.25616500 0.76239700 -18.38473300 22.16165500 -0.89327700 -4.65242300 58.57410000 45.89996300 9.13138500 -22.59946800 -5.75346000 28.13405800 -84.36834000 -8.27235800 18.76491400 2.04284600 -0.78926200 -3.20714400 -1.02571900 10.72740800 -1.26537800 -2.11967700 -8.08193400 21.62098700 0.59429700 -7.66201400 -0.41826700 -1.71877200 20.73893200 8.65301500 -3.52736200 -15.22070300 -22.25555200 
-1.57260000 88.63147700 185.88122600 2.21564000 1.01302100 175.53747600 0.71716500 -0.13613500 -1.13426900 0.13331200 11.22905600 -1.14892100 3.55003800 -17.93111600 2.65642200 0.27968000 1.10284700 2.09476400 -21.98524100 -1.47468500 7.61948600 -59.79554400 29.73505000 -3.53101300 16.21954300 -5.57807700 -37.83603300 83.21124300 0.75090300 -18.34250300 22.14857700 -0.91206300 -4.62455700 58.61353300 45.91351300 9.10125600 -22.72555700 -5.76559600 28.13745100 -84.11979700 -8.29399800 18.74813700 2.02576400 -0.77615500 -3.18519300 -1.01932200 10.73143500 -1.30192600 -2.09755100 -8.06406700 21.66117700 0.57730400 -7.64348500 -0.41150100 -1.71228100 20.73074700 8.61103600 -3.46275300 -15.26615300 -22.20008500 
-1.57886900 88.63127900 185.87535100 2.21150200 0.99628000 175.53929100 0.74165200 -0.14333900 -1.14681900 0.10413900 11.21622000 -1.15564700 3.54767500 -17.90784100 2.65177000 0.28667200 1.07942500 2.08952000 -21.96742600 -1.49226200 7.60327100 -59.82129300 29.69509700 -3.50309600 16.25329600 -5.60418900 -37.87701000 83.16932700 0.79280600 -18.32876200 22.16074200 -0.91304600 -4.60950400 58.64403500 45.89982200 9.05968700 -22.71357300 -5.75922100 28.12881500 -84.12266500 -8.23174000 18.71917200 2.02132600 -0.78911000 -3.18485500 -1.02243800 10.72844200 -1.29392600 -2.14348900 -8.10551400 21.62765300 0.56767700 -7.65997500 -0.41383100 -1.70746000 20.73981900 8.66458400 -3.44469200 -15.27483700 -22.24456000 
-1.58515900 88.63041700 185.86059600 2.20870500 1.01872700 175.54406700 0.73496000 -0.13535600 -1.13894000 0.11746800 11.24957800 -1.15017800 3.54770600 -17.93220300 2.65290200 0.27857200 1.10287000 2.08878800 -21.97958200 -1.46566100 7.62567000 -59.78386300 29.72560700 -3.55440700 16.19785500 -5.59673400 -37.83775700 83.24620100 0.80504500 -18.32268100 22.15925400 -0.87855100 -4.60405300 58.59505500 45.89393200 9.10939900 -22.64954000 -5.75689900 28.10199700 -84.31301100 -8.29277500 18.75067900 2.00867300 -0.75826800 -3.19491300 -1.02241800 10.73064300 -1.28106100 -2.09584800 -8.08790900 21.65651900 0.56076300 -7.62049400 -0.41910500 -1.71435600 20.72253400 8.65278900 -3.48504800 -15.26141000 -22.24457900 
-1.59000700 88.62976800 185.85594200 2.21189600 1.00448100 175.55084200 0.75674700 -0.13185100 -1.14739900 0.10617500 11.23377800 -1.15742400 3.50975800 -17.91455500 2.64346900 0.33651100 1.08137000 2.08637500 -21.97683300 -1.49352000 7.64523400 -59.77276600 29.83503900 -3.56401000 16.32941800 -5.64836100 -37.85644100 83.11710400 0.84196600 -18.20023300 22.16187300 -0.91313500 -4.58264500 58.64211700 45.89505000 9.05070700 -22.59604500 -5.76017100 28.14629900 -84.78107500 -8.19676800 18.42694500 2.01277300 -0.76404600 -3.18733500 -1.02341900 10.71821400 -1.30378400 -2.10062900 -8.08456200 21.64088200 0.56235700 -7.62367000 -0.41786700 -1.71596200 20.71295500 8.64052600 -3.50959500 -15.24803900 -22.24604200 
